<?xml version="1.0" encoding="UTF-8" standalone="no"?>
<svg
   id="Ebene_1"
   data-name="Ebene 1"
   width="21.16667cm"
   height="16.15722cm"
   viewBox="0 0 600 458"
   version="1.1"
   sodipodi:docname="BlueJ1.svg"
   inkscape:version="1.1.1 (3bf5ae0d25, 2021-09-20)"
   xmlns:inkscape="http://www.inkscape.org/namespaces/inkscape"
   xmlns:sodipodi="http://sodipodi.sourceforge.net/DTD/sodipodi-0.dtd"
   xmlns="http://www.w3.org/2000/svg"
   xmlns:svg="http://www.w3.org/2000/svg">
  <defs
     id="defs61" />
  <sodipodi:namedview
     id="namedview59"
     pagecolor="#ffffff"
     bordercolor="#666666"
     borderopacity="1.0"
     inkscape:pageshadow="2"
     inkscape:pageopacity="0.0"
     inkscape:pagecheckerboard="0"
     inkscape:document-units="cm"
     showgrid="false"
     inkscape:zoom="0.85152846"
     inkscape:cx="399.8692"
     inkscape:cy="287.13074"
     inkscape:window-width="1366"
     inkscape:window-height="705"
     inkscape:window-x="-8"
     inkscape:window-y="-8"
     inkscape:window-maximized="1"
     inkscape:current-layer="Ebene_1" />
  <path
     fill="#fff"
     d="M349.00006,0h251V458h-600V0h337c-8.829,2.69019-17.42749,5.855-24.95984,11.41907-1.15228.8512-2.759,1.0946-4.16406,1.59512C284.756,21.24972,261.60968,29.4128,238.533,37.76824A90.81651,90.81651,0,0,0,224.03034,44.303c-21.71247,12.539-38.68067,30.45076-53.85285,49.92825-9.57306,12.28958-17.48126,25.88156-26.0509,38.94536-5.55243,8.46423-11.53656,16.719-16.26184,25.63241a133.70034,133.70034,0,0,1-18.813,27.43927C99.44922,196.868,88.7804,205.955,74.9173,210.606c-2.19849.73755-4.32233,1.70624-6.45777,2.62146C47.32391,222.2863,30.00909,237.50658,10.51892,249.222a12.50878,12.50878,0,0,0-3.62665,3.40772c-3.09582,4.35713-6.21991,8.74287-3.71667,14.61085,2.54254,5.96008,6.936,8.01618,13.36236,8.02741,30.982.05407,61.96747.25006,92.94233.86779,8.56622.1709,17.40588.901,25.57885,3.25421,13.05689,3.7594,23.7818,11.14441,27.70044,25.36268,3.529,12.80438,7.21259,25.57244,10.418,38.45849,6.17639,24.83,3.00812,48.277-10.23907,70.47315-6.6247,11.1-9.50452,23.66735-11.10889,36.46875-.39746,3.17144.34589,6.21978,3.81,6.2929,3.50342.07392,3.88544-3.14325,4.29224-6.17291a41.36545,41.36545,0,0,1,2.77386-11.48724c4.09039-9.03772,8.678-17.85352,13.17242-26.70441,9.59656-18.89856,11.1297-39.51111,10.03571-59.8418-1.16455-21.64178-5.06836-43.20935-15.95337-62.684a34.08267,34.08267,0,0,1-2.71789-5.86041c-1.50953-4.577-1.83271-9.10467,1.46087-13.21026A4.96532,4.96532,0,0,0,169.827,268.321c1.65-10.72345,1.23022-20.59058-7.97437-28.63074a124.01005,124.01005,0,0,1-27.49975-33.33673c-4.47675-8.08917-4.76032-14.3432,1.43383-21.97754,9.56556-11.78952,12.34369-11.29093,22.50281-.78125,6.35022,6.5694,12.00073,13.8161,17.95044,20.77154,12.66431,14.80506,29.61841,17.84632,47.81928,17.38587a4.28864,4.28864,0,0,0,2.6491-1.22968c5.53113-5.61029,12.05506-10.48425,12.79047-19.4049.37836-4.59,3.01306-5.82642,7.29913-4.19867,1.82044.69134,3.60376,1.85736,5.465,1.99749,7.13245.53693,14.28693.84473,21.43854,1.04236,5.13244.14185,9.9461-.86981,13.277-5.334,5.25091-7.03753,10.78363-13.89178,15.606-21.213,3.48243-5.28714,2.47589-11.87507-2.58593-15.514a65.96409,65.96409,0,0,0-16.43067-8.8162c-21.498-7.50527-42.05243,7.362-42.09,29.98114-.0058,3.49079-.10859,6.99671-.44892,10.468-.45923,4.684-3.50909,7.275-8.21918,7.299-3.49969.01783-6.99957.00385-10.49938.00348-17.04816-.00165-26.14783-7.53686-29.39344-24.329a29.29262,29.29262,0,0,0-9.09588-16.79132q-8.91933-8.00016-18.094-15.71466c-4.5628-3.85981-5.022-7.53675-1.056-12.24137a51.57252,51.57252,0,0,1,5.60614-5.641c5.49536-4.77543,11.08777-9.43927,16.64179-14.14727,3.62408,1.72914,7.153,4.67009,10.88984,4.9635,11.88215.93289,23.84327.83223,35.77076,1.22545,6.968.22972,14.01818.05455,20.87719,1.08622,15.85558,2.38488,31.66954,4.10711,47.36547-.37519,18.32361-5.23263,35.16461-3.33841,50.16375,9.15555-.49481,10.11841-3.28979,20.05609-.50244,30.42035,1.87122,6.958,2.41272,14.40912,2.58454,21.66241.45306,19.13562-6.22876,36.86463-11.71918,54.78821-4.58264,14.96027-10.13422,29.653-18.85,42.64337A167.29977,167.29977,0,0,1,283.69077,315.206c-9.0951,6.70251-18.41211,13.10437-27.6482,19.61468-4.14825,2.924-4.8529,7.18335-3.70361,11.52008,1.12335,4.23859,4.827,6.00232,8.97461,5.5686a67.64,67.64,0,0,0,14.47034-2.73919c4.174-1.403,7.93121-4.05921,11.8518-6.2002,9.89575-5.40381,19.97064-10.51166,29.62476-16.3183,15.07623-9.06775,29.95154-18.48016,44.70978-28.0581,3.47-2.252,6.13269-5.7478,9.16681-8.67139a6.75181,6.75181,0,0,1,.58013,2.24848c-.94134,8.59588-2.109,17.16912-2.92321,25.77618-.97632,10.32074-2.365,20.51587-8.212,29.40936-15.5426,23.64087-25.40735,50.113-37.565,75.4336-1.9339,4.02765-1.8244,9.03637-2.917,14.9956,3.86926-1.57171,5.96954-2.455,8.09161-3.28229,28.34955-11.051,56.64282-22.25,85.07776-33.077,15.372-5.85315,30.707-12.11762,46.55261-16.34509,30.17261-8.04975,60.70813-14.73523,91.075-22.0622,12.4187-2.9964,24.79029-6.1878,37.18323-9.29053,3.73157,1.931,7.57776.81379,9.09375-2.28265,1.16992-2.38959.74793-6.82727-.81836-9.04834A169.01256,169.01256,0,0,0,581.078,324.034c-10.01916-10.62476-20.09314-21.22974-30.68115-31.27722-10.99414-10.43286-12.78674-22.99549-10.75842-37.04859,1.09863-7.61181,1.62341-15.60229-2.67517-22.33673-7.85742-12.31012-16.38611-24.19324-24.69177-36.21509-3.67511-5.31952-7.93561-10.28436-11.163-15.85473-13.72711-23.69293-25.399-48.72806-43.54779-69.55481-8.80359-10.1026-5.95-30.31867,7.43854-36.12647,4.34216-1.88356,8.38324-5.501,13.97156-3.331a40.80014,40.80014,0,0,0,11.32208,2.76114c6.0849.48687,12.22589-1.07755,14.89837-6.90473,2.74024-5.97491,2.00336-12.97314-2.65124-17.74392a110.10759,110.10759,0,0,0-19.819-16.396C465.72876,23.317,446.79181,17.91033,426.83423,16.2904c-6.62592-.53782-13.31268-.39853-19.97235-.4332-13.972-.07269-27.26813-1.90091-39.30756-10.22678C363.31738,2.7004,357.214,2.47454,351.96857.994,350.96527.71093,349.98877.33376,349.00006,0Z"
     transform="translate(-0.00006 0)"
     id="path50" />
  <path
     id="path52"
     style="stroke-width:1.33333"
     transform="scale(0.74999997)"
     d="m 449.33398,0 c -11.77205,3.5869468 -23.23814,7.8058361 -33.28125,15.224609 -1.53637,1.134974 -3.67732,1.459633 -5.55078,2.126953 -30.82693,10.980722 -61.69002,21.865313 -92.45898,33.00586 a 121.08919,121.08919 0 0 0 -19.33594,8.71289 c -28.94995,16.718709 -51.57511,40.602263 -71.80469,66.572268 -12.7641,16.38612 -23.30816,34.50741 -34.73437,51.92578 -7.40321,11.28568 -15.38135,22.29317 -21.68164,34.17773 a 178.26591,178.26591 0 0 1 -25.08399,36.58399 c -12.80338,14.15956 -27.02955,26.27718 -45.513668,32.47851 -2.93124,0.9834 -5.762122,2.27377 -8.609375,3.49414 -28.180815,12.07846 -51.267012,32.37174 -77.253906,47.99219 a 16.678321,16.678321 0 0 0 -4.8359379,4.54492 c -4.1277602,5.80942 -8.29273159,11.65647 -4.9550781,19.48047 3.3900535,7.94686 9.247966,10.68814 17.816406,10.70313 41.309335,0.0721 82.622069,0.33456 123.921879,1.1582 11.42156,0.22787 23.20813,1.20037 34.10546,4.33789 17.4092,5.01245 31.70875,14.85871 36.9336,33.81641 4.70533,17.0725 9.61678,34.09796 13.89062,51.27929 8.23519,33.10662 4.01245,64.36808 -13.65039,93.96289 -8.83293,14.79998 -12.67334,31.55647 -14.8125,48.625 -0.53002,4.2286 0.46117,8.29314 5.08008,8.39063 4.67129,0.0986 5.18026,-4.19092 5.72266,-8.23047 a 55.153496,55.153496 0 0 1 3.69922,-15.3164 c 5.45377,-12.05031 11.56991,-23.80429 17.5625,-35.60547 12.79549,-25.19808 14.83952,-52.68156 13.38086,-79.78907 -1.55274,-28.85562 -6.75815,-57.61197 -21.27149,-83.57812 a 45.444629,45.444629 0 0 1 -3.62305,-7.81445 c -2.01269,-6.10262 -2.44417,-12.13917 1.94727,-17.61329 a 6.6202536,6.6202536 0 0 0 1.49805,-2.88476 c 2.19996,-14.29794 1.63997,-27.4537 -10.63282,-38.17383 a 165.34634,165.34634 0 0 1 -36.66601,-44.44922 c -5.96907,-10.78556 -6.34676,-19.12557 1.91211,-29.30469 12.75407,-15.71936 16.45841,-15.05391 30.0039,-1.04101 8.46696,8.75921 16.00065,18.42139 23.9336,27.69531 16.88569,19.74008 39.49194,23.79558 63.75976,23.18164 a 5.7182269,5.7182269 0 0 0 3.53125,-1.64062 c 7.37476,-7.48039 16.07413,-13.97885 17.05469,-25.87305 0.50447,-6.11996 4.01766,-7.76799 9.73242,-5.59766 2.4273,0.92179 4.80355,2.47731 7.28516,2.66407 9.50992,0.7159 19.05046,1.12516 28.58594,1.38867 6.84337,0.18918 13.26001,-1.15901 17.70117,-7.11133 7.00133,-9.38345 14.37882,-18.52354 20.80859,-28.28516 4.64323,-7.04946 3.30184,-15.83159 -3.44726,-20.68359 a 87.951564,87.951564 0 0 0 -21.90821,-11.75586 c -28.664,-10.00704 -56.06918,9.8158 -56.11914,39.97461 -0.008,4.65444 -0.14583,9.3287 -0.59961,13.95703 -0.61222,6.24533 -4.67887,9.70042 -10.95898,9.73242 -4.66627,0.0238 -9.33163,0.004 -13.99805,0.004 -22.73088,-0.002 -34.86392,-10.04793 -39.1914,-32.4375 a 39.056908,39.056908 0 0 0 -12.12891,-22.38867 c -7.952,-7.08988 -15.99344,-14.07442 -24.125,-20.95313 -6.08369,-5.1464 -6.6962,-10.04945 -1.4082,-16.32226 a 68.761003,68.761003 0 0 1 7.47461,-7.52149 c 7.32724,-6.36728 14.78412,-12.58399 22.18945,-18.86133 1.02043,-2.91552 2.48959,-5.75773 2.98047,-8.75976 1.77254,-10.84018 7.65234,-19.16427 15.38672,-26.48438 18.6853,-17.684606 37.13053,-35.276566 61.43945,-45.894528 a 481.67271,481.67271 0 0 1 77.69727,-26.740234 c 8.54848,-2.1072 16.7487,-5.709999 25.01171,-8.878906 16.69517,-6.402787 32.86726,-5.215364 48.94532,2.345703 a 190.61018,190.61018 0 0 0 19.31836,7.097656 11.835841,11.835841 0 0 0 4.58593,0.367188 c 17.16504,-1.250774 34.37223,-3.977303 51.47266,-3.414063 a 124.59091,124.59091 0 0 1 40.15039,8.039063 c 15.32195,5.922933 18.7692,18.411365 11.16992,32.505859 -1.84745,3.426507 -7.23934,5.883695 -11.45898,6.91211 -12.74488,3.106186 -24.60823,7.92034 -34.14258,16.925781 -10.78621,10.187921 -21.26212,20.768761 -31.1543,31.822261 -13.1442,14.68759 -28.0275,26.42741 -47.25195,31.90625 -4.65608,1.32696 -9.37215,2.44271 -14.06055,3.65625 -0.65974,13.49158 -4.38631,26.74154 -0.66992,40.56055 2.49496,9.27735 3.21631,19.21176 3.44531,28.88281 0.6041,25.51408 -8.30453,49.15267 -15.625,73.05079 -6.11013,19.94702 -13.51171,39.53882 -25.13281,56.85937 a 223.06642,223.06642 0 0 1 -53.07812,55.55664 c -12.12679,8.93668 -24.5485,17.47193 -36.86329,26.15234 -5.531,3.8986 -6.47186,9.57707 -4.93945,15.35938 1.4978,5.65147 6.43668,8.00399 11.9668,7.42578 a 90.186417,90.186417 0 0 0 19.29297,-3.65234 c 5.56534,-1.8707 10.57528,-5.41291 15.80273,-8.26758 13.19435,-7.20508 26.62784,-14.01563 39.5,-21.75781 20.10164,-12.09032 39.93563,-24.63965 59.61328,-37.41016 4.62663,-3.00269 8.17725,-7.66438 12.22266,-11.5625 13.6342,-25.30159 27.3885,-50.5384 40.85742,-75.92773 8.08855,-15.24725 16.30249,-30.47305 23.41406,-46.18165 7.1967,-15.89705 13.09717,-32.38006 19.57813,-48.60156 3.20041,-8.0103 6.28109,-16.07442 9.72656,-23.97851 a 30.983135,30.983135 0 0 1 5.12695,-7.73047 c 7.75684,-8.90747 17.6932,-7.72375 23.19336,2.73047 11.02646,20.95842 22.25285,41.81758 32.8418,62.99609 7.36889,14.73845 18.46905,26.38778 29.01172,38.66602 a 152.25827,152.25827 0 0 1 16.2793,24.2539 c 2.04621,3.60636 2.43525,8.48104 2.53125,12.80274 0.26644,11.97566 -0.59782,24.00244 0.17187,35.93164 a 32.080001,32.080001 0 0 0 5.54688,16.33594 c 7.51393,10.11149 16.46875,19.13851 24.55078,28.8457 6.36278,7.64241 12.0332,15.86596 18.48047,23.43164 10.17057,11.93489 20.69726,23.56844 31.16601,35.24609 2.04379,2.27978 4.51059,4.18108 6.78125,6.25586 4.97428,2.57406 10.10172,1.08367 12.12305,-3.04492 1.55989,-3.18612 0.99855,-9.10312 -1.08985,-12.06445 a 225.3471,225.3471 0 0 0 -20.37109,-24.48438 c -13.35887,-14.16627 -26.79068,-28.30648 -40.9082,-41.70312 -14.65886,-13.91048 -17.04818,-30.65905 -14.34375,-49.39649 1.46484,-10.14909 2.16292,-20.80396 -3.56836,-29.7832 -10.47656,-16.41345 -21.84758,-32.25806 -32.92188,-48.28711 -4.9001,-7.09261 -10.57958,-13.71142 -14.88281,-21.13867 -18.30281,-31.59058 -33.86613,-64.97122 -58.06445,-92.74024 -11.73804,-13.47012 -7.93335,-40.42422 9.91797,-48.16797 5.78954,-2.511523 11.17789,-7.334735 18.6289,-4.441401 a 54.400189,54.400189 0 0 0 15.09571,3.681641 c 8.1132,0.6492 16.30199,-1.437458 19.86523,-9.207032 3.65364,-7.96656 2.67098,-17.297163 -3.53516,-23.658203 A 146.81078,146.81078 0 0 0 643.62695,45.341797 C 620.97062,31.08997 595.72136,23.88061 569.11133,21.720703 560.27677,21.003583 551.3619,21.188765 542.48242,21.142578 523.8531,21.045698 506.12492,18.608973 490.07227,7.5078125 484.42327,3.601239 476.28483,3.300332 469.29102,1.3261719 467.9537,0.94865183 466.65226,0.44502669 465.33398,0 Z" />
  <path
     fill="#5d8ab2"
     d="M371.13672,289.92218c10.22565-18.97626,20.54144-37.9046,30.64313-56.94653,6.0664-11.43543,12.22772-22.85382,17.5614-34.63532,5.39758-11.92273,9.82275-24.28543,14.68341-36.4516C436.425,155.881,438.73493,149.833,441.319,143.905a23.23753,23.23753,0,0,1,3.84546-5.79755c5.81757-6.6806,13.27045-5.79382,17.39557,2.04685,8.26984,15.71878,16.68976,31.36426,24.63147,47.24814,5.52667,11.05383,13.85089,19.79016,21.75787,28.99884a114.19222,114.19222,0,0,1,12.20951,18.191c1.53466,2.70477,1.82629,6.3609,1.89843,9.60217.19983,8.98175-.44812,18.00078.12915,26.94762a24.06,24.06,0,0,0,4.16,12.25177c5.63549,7.58368,12.35193,14.35394,18.41345,21.63434,4.77209,5.73181,9.02441,11.90045,13.85986,17.57471,7.628,8.95117,15.523,17.6762,23.37451,26.43444,1.533,1.7099,3.38318,3.13526,5.08619,4.69135-12.3938,3.10229-24.76539,6.2937-37.184,9.2901-30.36669,7.327-60.90234,14.01245-91.075,22.06219-15.84558,4.22748-31.18066,10.492-46.55261,16.3451-28.43488,10.827-56.72815,22.026-85.07776,33.077-2.12207.82727-4.22235,1.71051-8.09161,3.28229,1.09259-5.95923.98315-10.968,2.917-14.9956,12.15759-25.32056,22.02234-51.79273,37.565-75.4336,5.847-8.89349,7.23572-19.08862,8.212-29.40936.81421-8.607,1.98187-17.1803,2.92322-25.77619A6.75282,6.75282,0,0,0,371.13672,289.92218Z"
     transform="translate(-0.00006 0)"
     id="path54" />
  <path
     fill="#5d8ab2"
     d="M186.91876,107.96844c.76532-2.18659,1.86737-4.31812,2.23554-6.56964,1.3294-8.13013,5.73822-14.3725,11.539-19.86258,14.014-13.26346,27.848-26.458,46.07971-34.42145a361.254,361.254,0,0,1,58.27411-20.05506c6.41132-1.58038,12.5611-4.28152,18.75836-6.6582,12.52143-4.80209,24.65051-3.912,36.709,1.75885a142.95047,142.95047,0,0,0,14.488,5.32276,8.87707,8.87707,0,0,0,3.43976.27523c12.87378-.93808,25.779-2.983,38.60425-2.5606a93.4429,93.4429,0,0,1,30.11291,6.02984c11.49146,4.4422,14.07752,13.80771,8.37806,24.37857-1.38562,2.56986-5.4303,4.413-8.595,5.18433-9.55865,2.32965-18.45605,5.94079-25.60681,12.69488C413.246,81.1263,405.389,89.06243,397.97,97.35256c-9.85821,11.01567-21.02044,19.81938-35.43878,23.92853-3.492.99521-7.029,1.83252-10.54535,2.74267-14.99921-12.49368-31.84015-14.3879-50.16376-9.15527-15.69592,4.48227-31.50988,2.76-47.36547.37518-6.85907-1.03167-13.90918-.8565-20.8772-1.08621-11.92749-.39319-23.88861-.29258-35.77075-1.22547C194.07178,112.63857,190.54285,109.69762,186.91876,107.96844Z"
     transform="translate(-0.00006 0)"
     id="path56" />
</svg>
