<svg id="svg" version="1.1" xmlns="http://www.w3.org/2000/svg" xmlns:xlink="http://www.w3.org/1999/xlink" width="400" height="493.44115004492363" viewBox="0, 0, 400,493.44115004492363"><g id="svgg"><path id="path1" d="" stroke="none" fill="#389cdc" fill-rule="evenodd"></path><path id="path2" d="" stroke="none" fill="#389cdc" fill-rule="evenodd"></path><path id="path3" d="" stroke="none" fill="#389cdc" fill-rule="evenodd"></path><path id="path4" d="" stroke="none" fill="#389cdc" fill-rule="evenodd"></path><path id="path0" d="M179.874 0.216 C 178.886 0.286,175.004 0.515,171.249 0.725 C 76.042 6.050,7.090 39.110,0.366 82.659 C -0.132 85.888,-0.132 407.553,0.366 410.782 C 7.115 454.489,72.464 485.886,171.069 492.796 C 175.423 493.101,185.408 493.261,200.000 493.261 C 310.354 493.261,392.115 459.482,399.634 410.782 C 400.132 407.553,400.132 85.888,399.634 82.659 C 392.906 39.089,328.370 7.937,229.829 0.694 C 224.814 0.326,183.879 -0.066,179.874 0.216 M224.259 36.861 C 294.691 40.879,355.074 62.304,363.170 86.150 C 368.468 101.754,335.487 122.789,288.624 133.694 C 199.823 154.358,80.136 139.434,43.817 103.167 C 33.722 93.086,33.722 86.249,43.817 76.168 C 70.748 49.276,147.772 32.497,224.259 36.861 M41.101 146.079 C 67.380 161.572,110.509 173.316,156.514 177.504 C 172.800 178.986,177.249 179.155,200.000 179.155 C 222.751 179.155,227.200 178.986,243.486 177.504 C 290.419 173.231,333.172 161.430,360.288 145.263 L 363.881 143.120 363.979 169.224 C 364.107 203.368,364.198 202.940,355.064 211.426 C 319.284 244.666,212.009 259.705,125.432 243.620 C 80.585 235.287,46.188 219.079,37.711 202.286 C 36.022 198.941,35.945 197.500,35.942 169.333 L 35.939 142.978 37.107 143.695 C 37.749 144.090,39.547 145.162,41.101 146.079 M42.049 253.646 C 114.244 295.422,268.745 297.622,349.506 258.025 C 354.716 255.470,357.156 254.150,362.369 251.068 L 364.090 250.049 363.986 277.855 L 363.881 305.660 363.065 307.678 C 350.691 338.268,260.205 361.625,174.483 356.355 C 105.114 352.091,46.511 331.352,36.935 307.678 L 36.119 305.660 36.014 277.855 L 35.910 250.049 37.631 251.068 C 38.578 251.628,40.566 252.788,42.049 253.646 M49.236 364.275 C 130.699 405.110,289.454 402.375,360.751 358.907 L 364.089 356.871 363.985 381.221 C 363.890 403.645,363.830 405.706,363.234 407.290 C 354.124 431.485,295.535 452.305,224.438 456.611 C 138.703 461.803,48.351 438.058,36.766 407.290 C 36.170 405.706,36.110 403.645,36.015 381.221 L 35.911 356.871 39.249 358.907 C 41.085 360.026,45.580 362.442,49.236 364.275 " stroke="none" fill="#349cdc" fill-rule="evenodd"></path><path id="path1" d="" stroke="none" fill="#389cdc" fill-rule="evenodd"></path><path id="path2" d="" stroke="none" fill="#389cdc" fill-rule="evenodd"></path><path id="path3" d="" stroke="none" fill="#389cdc" fill-rule="evenodd"></path><path id="path4" d="" stroke="none" fill="#389cdc" fill-rule="evenodd"></path></g></svg>